#!OML:ASF H:\Terrain\Walking\May29\JustinRory\Justin.ASF
:FULLY-SPECIFIED
:DEGREES
1393
root 7.72039 17.5318 -16.6713 -2.77992 -1.48342 0.39999
lowerback 8.46912 -0.700615 -3.81436
upperback 1.00681 -1.19428 2.35038
thorax -3.57589 -0.527166 4.73584
lowerneck -13.1506 -2.77932 -10.4222
upperneck 6.99889 -2.79741 8.85548
head 4.51042 -1.13787 4.24147
rclavicle 2.48481e-016 -1.59028e-015
rhumerus -11.98 34.1409 -99.2324
rradius 104.593
rwrist -20.4493
rhand -23.5373 35.0659
rfingers 7.12502
rthumb 2.92425 5.10619
lclavicle 2.48481e-016 -1.59028e-015
lhumerus 0.212595 -34.3687 98.1929
lradius 93.0387
lwrist 17.3061
lhand -12.4484 33.9391
lfingers 7.12502
lthumb 13.6248 63.4732
rfemur -5.08278 -3.30248 16.8908
rtibia 21.9691
rfoot -11.5055 -11.2385
rtoes 0.114782
lfemur -4.97764 0.0485541 -17.291
ltibia 22.7154
lfoot -12.6451 2.98756
ltoes -12.0144
1394
root 7.73212 17.5299 -16.6649 -2.98263 -1.64235 0.516521
lowerback 8.43804 -0.649569 -3.77585
upperback 1.12137 -1.12614 2.22892
thorax -3.44984 -0.500053 4.57589
lowerneck -13.0191 -2.7265 -9.97601
upperneck 6.86153 -2.76839 8.44653
head 4.43097 -1.1376 4.03965
rclavicle -7.45443e-016 -1.35174e-014
rhumerus -11.7795 35.4491 -99.9633
rradius 103.582
rwrist -20.6199
rhand -21.8617 43.9303
rfingers 7.12502
rthumb 4.54233 13.999
lclavicle -7.45443e-016 -1.35174e-014
lhumerus 0.923415 -36.396 97.8596
lradius 92.8132
lwrist 16.7352
lhand -15.1688 37.4798
lfingers 7.12502
lthumb 11.002 67.1715
rfemur -4.87624 -3.26626 16.7171
rtibia 22.0128
rfoot -11.4454 -11.074
rtoes -0.172279
lfemur -4.58565 0.125334 -17.4607
ltibia 22.4857
lfoot -12.5793 3.05631
ltoes -11.8
1395
root 7.74787 17.5316 -16.6565 -3.12779 -1.8878 0.568149
lowerback 8.30312 -0.513711 -3.54377
upperback 1.2419 -0.925377 2.07831
thorax -3.27677 -0.410336 4.25915
lowerneck -13.8182 -2.9924 -11.1106
upperneck 7.96343 -3.03303 9.67729
head 4.96567 -1.21173 4.60517
rclavicle -1.01629e-014 -3.97569e-015
rhumerus -11.3552 35.9348 -100.463
rradius 103.022
rwrist -20.4799
rhand -26.7553 37.7607
rfingers 7.12502
rthumb -0.183775 7.78102
lclavicle -1.01629e-014 -3.97569e-015
lhumerus 1.65704 -37.7421 97.7245
lradius 92.3946
lwrist 16.0443
lhand -17.7329 41.2723
lfingers 7.12502
lthumb 8.52808 71.0801
rfemur -4.66535 -2.9858 16.6019
rtibia 21.8965
rfoot -11.4555 -11.01
rtoes 0.625764
lfemur -4.33446 0.255727 -17.5803
ltibia 22.392
lfoot -12.5995 3.21527
ltoes -12.1131
1396
root 7.76019 17.5365 -16.6491 -3.13538 -2.21598 0.491964
lowerback 8.07308 -0.368019 -3.28605
upperback 1.2726 -0.704436 2.01844
thorax -3.14255 -0.307179 4.02186
lowerneck -14.1908 -3.17263 -11.8353
upperneck 8.80497 -3.2569 10.5869
head 5.34144 -1.27919 5.00977
rclavicle -8.49804e-015 8.74653e-015
rhumerus -11.0324 35.1458 -100.954
rradius 102.976
rwrist -19.9044
rhand -28.9548 40.2337
rfingers 7.12502
rthumb -2.30804 10.2664
lclavicle -8.49804e-015 8.74653e-015
lhumerus 1.84879 -37.7856 98.0997
lradius 92.052
lwrist 15.7414
lhand -17.785 42.0421
lfingers 7.12502
lthumb 8.47781 71.8519
rfemur -4.55924 -2.54094 16.6745
rtibia 21.6466
rfoot -11.4645 -11.0756
rtoes 1.61751
lfemur -4.28014 0.373027 -17.5315
ltibia 22.4089
lfoot -12.6252 3.40104
ltoes -11.8775
1397
root 7.77382 17.5418 -16.6396 -2.98366 -2.46128 0.217641
lowerback 7.66428 -0.310719 -2.80314
upperback 1.3178 -0.578185 2.0095
thorax -2.88469 -0.255361 3.71851
lowerneck -14.4864 -3.22444 -11.9749
upperneck 9.30373 -3.34454 10.9451
head 5.56545 -1.29598 5.14872
rclavicle -6.95746e-016 -2.0276e-014
rhumerus -10.8533 33.6127 -101.36
rradius 103.23
rwrist -19.101
rhand -26.7218 41.2489
rfingers 7.12502
rthumb -0.151359 11.2692
lclavicle -6.95746e-016 -2.0276e-014
lhumerus 1.60747 -37.0633 98.4813
lradius 91.9845
lwrist 16.1887
lhand -16.4873 40.8448
lfingers 7.12502
lthumb 9.73 70.6
rfemur -4.60671 -2.41151 16.9608
rtibia 21.4223
rfoot -11.27 -11.0194
rtoes 1.03451
lfemur -4.35165 0.375271 -17.2679
ltibia 22.4044
lfoot -12.6836 3.54682
ltoes -11.0039
1398
root 7.79414 17.5469 -16.6323 -2.8208 -2.58987 0.227005
lowerback 7.44257 -0.287241 -2.63066
upperback 1.25845 -0.528225 2.01882
thorax -2.82833 -0.232216 3.62296
lowerneck -14.4275 -3.15982 -11.2989
upperneck 9.20653 -3.25886 9.91757
head 5.484 -1.30224 4.70505
rclavicle 7.70291e-016 1.55052e-014
rhumerus -11.0601 32.2917 -101.607
rradius 103.618
rwrist -18.8563
rhand -29.3826 38.1
rfingers 7.12502
rthumb -2.72124 8.13762
lclavicle 7.70291e-016 1.55052e-014
lhumerus 1.169 -35.97 99.0524
lradius 91.9782
lwrist 17.4506
lhand -15.8582 38.7323
lfingers 7.12502
lthumb 10.337 68.4583
rfemur -4.69813 -2.58881 16.8611
rtibia 21.2672
rfoot -11.0905 -10.7783
rtoes -0.0136214
lfemur -4.44635 0.408468 -17.353
ltibia 22.3657
lfoot -12.7342 3.61293
ltoes -10.6292
1399
root 7.81191 17.5505 -16.6309 -2.81284 -2.61199 0.636194
lowerback 7.66684 -0.263413 -3.12407
upperback 1.01394 -0.538892 2.08711
thorax -3.20077 -0.220611 3.98105
lowerneck -14.0118 -3.09285 -11.0583
upperneck 9.02651 -3.14974 9.1403
head 5.32862 -1.30307 4.42076
rclavicle -2.41026e-015 1.35174e-014
rhumerus -11.5252 31.3005 -101.71
rradius 103.997
rwrist -19.2951
rhand -27.6422 38.8642
rfingers 7.12502
rthumb -1.04039 8.88696
lclavicle -2.41026e-015 1.35174e-014
lhumerus 0.593909 -34.7386 99.827
lradius 92.2065
lwrist 18.9748
lhand -15.9805 36.8843
lfingers 7.12502
lthumb 10.219 66.616
rfemur -4.62462 -2.77997 16.3139
rtibia 21.0467
rfoot -10.9719 -10.5487
rtoes -0.490519
lfemur -4.50303 0.389893 -17.8808
ltibia 22.445
lfoot -12.7745 3.69839
ltoes -10.7902
1400
root 7.82481 17.5505 -16.6306 -2.85182 -2.67522 0.711132
lowerback 7.84261 -0.238059 -3.34584
upperback 0.879993 -0.522653 2.2466
thorax -3.43622 -0.20121 4.27664
lowerneck -13.6592 -3.10177 -11.3618
upperneck 8.82286 -3.1472 9.27468
head 5.21386 -1.31045 4.51378
rclavicle -9.44227e-016 -7.95139e-016
rhumerus -11.5232 30.4601 -101.46
rradius 104.277
rwrist -20.1107
rhand -24.9589 38.2389
rfingers 7.12502
rthumb 1.5513 8.26478
lclavicle -9.44227e-016 -7.95139e-016
lhumerus 0.292868 -33.7445 100.17
lradius 92.5888
lwrist 19.7085
lhand -16.016 36.6043
lfingers 7.12502
lthumb 10.1848 66.3378
rfemur -4.4129 -2.7856 16.1988
rtibia 20.6098
rfoot -10.6967 -10.5342
rtoes -0.838187
lfemur -4.63399 0.231038 -18.0276
ltibia 22.8159
lfoot -12.8915 3.95825
ltoes -10.8163
